SplineFontDB: 3.2
FontName: MiaPatrcevic
FullName: MiaPatrcevic
FamilyName: MiaPatrcevic
Weight: Regular
Copyright: Copyright (c) 2024, Mia
UComments: "2024-3-20: Created with FontForge (http://fontforge.org)"
Version: 001.000
ItalicAngle: 0
UnderlinePosition: -100
UnderlineWidth: 50
Ascent: 800
Descent: 200
InvalidEm: 0
LayerCount: 3
Layer: 0 0 "Back" 1
Layer: 1 0 "Fore" 0
Layer: 2 0 "Back 2" 1
XUID: [1021 51 255378630 4923]
StyleMap: 0x0000
FSType: 0
OS2Version: 0
OS2_WeightWidthSlopeOnly: 0
OS2_UseTypoMetrics: 1
CreationTime: 1710960350
ModificationTime: 1711063824
OS2TypoAscent: 0
OS2TypoAOffset: 1
OS2TypoDescent: 0
OS2TypoDOffset: 1
OS2TypoLinegap: 90
OS2WinAscent: 0
OS2WinAOffset: 1
OS2WinDescent: 0
OS2WinDOffset: 1
HheadAscent: 0
HheadAOffset: 1
HheadDescent: 0
HheadDOffset: 1
OS2Vendor: 'PfEd'
MarkAttachClasses: 1
DEI: 91125
Encoding: iso8859-2
UnicodeInterp: none
NameList: AGL For New Fonts
DisplaySize: -48
AntiAlias: 1
FitToEm: 0
WinInfo: 0 38 13
BeginPrivate: 0
EndPrivate
BeginChars: 256 20

StartChar: M
Encoding: 77 77 0
Width: 722
Flags: W
HStem: 0 21G<417 650.099>
VStem: 92 117<377.667 499> 104 102<106 486.333> 474 113<224.6 499> 484 104<110 381.4>
LayerCount: 3
Fore
SplineSet
40 0 m 1xa0
 35 106 l 1
 104 106 l 1xa0
 92 758 l 1
 190 760 l 1
 250.72747675 655.439099032 204.955078125 731.889648438 343 502 c 1
 488 758 l 1
 587 761 l 1xd0
 588 110 l 1
 646 111 l 1
 651 0 l 1
 651 0 417 -2 417 0 c 0
 417 2 413 109 413 109 c 1
 484 107 l 1x88
 474 499 l 1
 346 381 l 1
 209 499 l 1xd0
 206 105 l 1
 269 107 l 1
 269 107 271.000086565 -5.99999999938 271 0 c 0
 270.99999683 0.219709491119 39.9999997629 -0.43238037713 40 0 c 1xa0
EndSplineSet
Validated: 37
EndChar

StartChar: i
Encoding: 105 105 1
Width: 284
Flags: W
HStem: 0 21G<37 219>
VStem: 92 73<82 368>
LayerCount: 3
Fore
SplineSet
149 391 m 4
 203.978515625 413.725585938 162.41015625 504.1171875 99 454 c 4
 72.294921875 432.893554688 100.692382812 371.03125 149 391 c 4
37 0 m 1
 37 81 l 1
 92 82 l 1
 91.9775390625 276.811523438 93.1123046875 260.850585938 94 368 c 1
 169 368 l 1
 165 80 l 1
 218 82 l 1
 218 82 219 -1 219 0 c 0
 219 1 37 0 37 0 c 1
EndSplineSet
Validated: 37
EndChar

StartChar: a
Encoding: 97 97 2
Width: 305
Flags: W
HStem: 132 80<83.0744 146.562> 345 47<122.77 173.9>
VStem: 177 71<210.886 344.377>
LayerCount: 3
Fore
SplineSet
115 132 m 1
 93.078125 130.892578125 77.7421875 123.594726562 84 96 c 1
 101.666992188 72.2216796875 128.333984375 73.1513671875 146 100 c 1
 149.01953125 115.388671875 143.75 127.009765625 115 132 c 1
153 352 m 1024
9 99 m 1
 14.0888671875 229.041015625 88.6005859375 205.231445312 177 212 c 5
 176 305 l 1
 175.72265625 346.8203125 154.774505147 345.14177523 149 345 c 1
 148.546806345 344.488500124 114.80048675 351.778089843 119 289 c 1
 54 288 l 1
 56 348 l 1
 68.4715986641 398.619500828 148.103332304 391.556863694 180 392 c 1
 211.383804658 389.721240168 224.63671875 373.272460938 224 371 c 1
 225.12109375 373.928710938 241.883257419 324.007911736 243 319 c 0
 245.659179687 307.075195312 248.55859375 162.276367188 248 161 c 1
 246.223040613 157.454396085 272.790283998 -5.61532432039 271 0 c 0
 270.892142778 0.3383001158 210.99999983 -0.517017995134 211 0 c 0
 211.000000657 2 211 43 211 43 c 1
 210.659403929 42.8956004888 170.725693991 0.212578379151 163 0 c 0
 138.578915156 -0.671964827936 2.41650473666 -1.68630335331 9 99 c 1
EndSplineSet
Validated: 33
EndChar

StartChar: P
Encoding: 80 80 3
Width: 692
Flags: W
HStem: 0 21G<141.231 432>
VStem: 232 100<104 402>
LayerCount: 3
Fore
SplineSet
443 602 m 1
 402.384765625 621.159179688 347.691057053 605.929401062 375 540 c 1
 391 516 427 500 460 536 c 1
 469.068682846 555.983906324 473 587 443 602 c 1
142 0 m 1
 138 104 l 1
 232 102 l 1
 229 726 l 1
 400.703622314 731.127743706 565 762 601 574 c 1
 612 470 569.441816188 379.925072894 338 402 c 1
 332 104 l 1
 434 108 l 1
 434 108 432 -4 432 0 c 0
 432 4 142 0 142 0 c 1
EndSplineSet
Validated: 33
EndChar

StartChar: t
Encoding: 116 116 4
Width: 440
Flags: W
HStem: 493 89<22 121 207 301>
VStem: 121 86<390.667 493 582 670> 132 87<102.458 351.308>
LayerCount: 3
Fore
SplineSet
21 493 m 1xa0
 22 582 l 1
 121 582 l 1
 119 671 l 1
 204 670 l 1
 207 580 l 1xc0
 301 580 l 1
 302 495 l 5
 206 493 l 1
 219 186 l 1
 228.580078125 37.7041015625 307.260742188 82.2060546875 313 126.995117188 c 1
 313.826972884 130.054209704 314.873955902 165.03133657 315 196 c 1
 390 194 l 1
 393 184 378 80 376 74 c 1
 355.999998171 -27.4780045338 192.449216638 -12.2689402038 159 46 c 1
 152 57 134.540039062 117.540039062 132 164 c 1
 123 493 l 1
 21 493 l 1xa0
EndSplineSet
Validated: 33
EndChar

StartChar: r
Encoding: 114 114 5
Width: 394
Flags: W
HStem: 0 83<23 104 195 274>
VStem: 108 90<82 336.104 364 423>
LayerCount: 3
Fore
SplineSet
23 0 m 1
 23 83 l 1
 104 82 l 1
 108 423 l 1
 199 423 l 1
 198 364 l 1
 198.192382812 354.685546875 186.033203125 455.421875 328 419 c 0
 377.079101562 406.409179688 361.081054688 414.08984375 369 307 c 1
 349.2890625 363.2734375 198.89453125 401.764648438 198 269 c 0
 197.327148438 169.124023438 195.311523438 110.140625 195 80 c 1
 274 79 l 1
 275 0 l 1
 23 0 l 1
EndSplineSet
Validated: 37
EndChar

StartChar: ccaron
Encoding: 232 269 6
Width: 367
Flags: W
LayerCount: 3
Fore
SplineSet
148 498 m 5
 165.281833722 474.353969893 182.014153929 433.259765297 182 435 c 5
 202.333007812 447.625976562 219.666992188 445.463867188 240 438 c 5
 251.21484375 458 263.235351562 477 276 497 c 5
 247.208007812 497 255.25390625 496 240 496 c 5
 212 467 l 5
 182 497 l 5
 148 498 l 5
313 411 m 1
 313 411 76 460 46 230 c 0
 16 0 289.141601562 -22.9208984375 310 28 c 0
 316.512695312 43.900390625 304.81640625 122.7265625 308 123 c 1
 308 123 94 85 136 229 c 0
 178 373 313.591796875 300.58984375 314 314 c 0
 314.258789062 322.510742188 314.65625 371.599609375 313 411 c 1
EndSplineSet
Validated: 37
EndChar

StartChar: c
Encoding: 99 99 7
Width: 367
Flags: W
LayerCount: 3
Fore
SplineSet
313 411 m 5
 313 411 76 460 46 230 c 4
 16 0 289.141601562 -22.9208984375 310 28 c 4
 316.512695312 43.900390625 304.81640625 122.7265625 308 123 c 5
 308 123 94 85 136 229 c 4
 178 373 313.591796875 300.58984375 314 314 c 4
 314.258789062 322.510742188 314.65625 371.599609375 313 411 c 5
EndSplineSet
Validated: 37
EndChar

StartChar: scaron
Encoding: 185 353 8
Width: 367
Flags: W
LayerCount: 3
Fore
SplineSet
247 287 m 0
 263.826389648 256.256994401 296.196240295 271.100599025 301 289 c 0
 310.345703125 323.823242188 226.148374212 450.598909786 111 376 c 0
 -17.2506208658 292.912795674 92.6162109375 198.09765625 126 194 c 0
 181.368164062 187.205078125 282.878641642 141.827666129 207 84 c 0
 107.342303006 8.05014238175 80.6989006831 206.425465116 60 130 c 0
 4.47394166231 -75.0159522712 249.609778584 17.2554387201 275 51 c 4
 290.811198672 72.0136789964 361.491367577 211.816091406 159 259 c 4
 49.0419628248 284.622079782 198.528705191 375.560488547 247 287 c 0
109 475 m 1
 130.198242188 449.6171875 139.369140625 428.72265625 151 414 c 1
 212 418 l 1
 223.21484375 438 235.235351562 458 248 478 c 1
 211 480 l 1
 180 445 l 1
 150 475 l 1
 109 475 l 1
EndSplineSet
Validated: 41
EndChar

StartChar: zcaron
Encoding: 190 382 9
Width: 367
Flags: W
LayerCount: 3
Fore
SplineSet
86 252 m 1
 211 256 l 1
 156.115942029 176 l 0
 100 177 l 0
 102 140 l 0
 129.68115942 140 l 0
 56 53 l 1
 56.58984375 35.3330078125 55.056640625 17.6669921875 55 0 c 1
 242 0 l 1
 241 53 l 1
 111 49 l 1
 184 134 l 0
 239 133 l 0
 238 174 l 0
 202 174 l 0
 259 255 l 1
 261 304 l 1
 91 307 l 1
 86 252 l 1
109 392 m 1
 130.198242188 366.6171875 143.369140625 346.72265625 155 332 c 1
 212 332 l 1
 223.21484375 352 235.235351562 374 248 394 c 1
 211 396 l 1
 182 360 l 5
 149 393 l 1
 109 392 l 1
EndSplineSet
Validated: 41
EndChar

StartChar: C
Encoding: 67 67 10
Width: 556
Flags: W
VStem: 46 106<255.49 448.128>
LayerCount: 3
Fore
SplineSet
473 659 m 5
 477.439397317 657.767311521 30.7381218975 770.880703809 46 341 c 4
 60.1446600092 -57.4120669188 383.325544338 -14.7948235553 480 33 c 4
 574.124972946 79.534386393 499.560546875 121.670898438 438 133 c 5
 440.494140625 134.586914062 166.025696284 26.6659332179 152 368 c 4
 148.926651788 442.79403678 230.637189547 605.919281296 361 559 c 4
 517.345501185 502.729208322 523.958426198 579.43151219 473 659 c 5
EndSplineSet
Validated: 37
EndChar

StartChar: Ccaron
Encoding: 200 268 11
Width: 556
Flags: W
LayerCount: 3
Fore
SplineSet
242 756 m 1
 263.3156211 731.363025797 282.698973036 689.618041084 276 693 c 1
 307.638736085 705.133456134 313.606785153 699.292234855 330 692 c 1
 339.390625 712.303710938 351.48046875 733.723632812 367 754 c 1
 338.208007812 754 347.25390625 754 332 754 c 1
 323.940429688 744.333007812 316.8359375 735.666992188 305 726 c 1
 277 756 l 1
 242 756 l 1
476 607 m 5
 291.438476562 700.018554688 63.8070269792 715.44813238 58 297 c 4
 52.5787360093 -93.6504654068 416.053048621 -27.2681789642 463 57 c 4
 568.707975785 246.742216688 408.976602703 194.233088144 361 195 c 5
 390.815841656 145.802610346 231.462327685 -24.5216367943 172 369 c 4
 159.917860803 448.959587487 248.814453125 619.703125 370 551 c 4
 502.807617188 475.708007812 509 590 476 607 c 5
EndSplineSet
Validated: 37
EndChar

StartChar: e
Encoding: 101 101 12
Width: 486
Flags: W
LayerCount: 3
Fore
SplineSet
238 357 m 1
 256.739257812 378.905273438 334.579101562 365.91796875 293 313 c 0
 271.182617188 285.232421875 232.745552299 309.694090652 224 329 c 0
 221.919921875 333.591796875 223.870117188 343.243164062 238 357 c 1
386 122 m 4
 270.948982254 -24.5921643011 59.0794971238 213.658749622 188 260 c 4
 232.966104875 276.163336925 218.185153709 239.308931741 341 255 c 0
 399.079884902 262.420401246 423.442008013 244.998067087 424 296 c 0
 426.615071048 535.02436088 129.049654672 407.344442413 118 382 c 1
 118 382 110.323235161 372.857696461 92 348 c 0
 45.2189353816 284.535797626 -10.6004968052 4.33968826719 258 2 c 0
 424.748375215 0.547511185929 418.75390625 28.91015625 421 29 c 1
 373.810030866 1.62087762537 396.068283265 134.828495249 386 122 c 4
EndSplineSet
Validated: 37
EndChar

StartChar: v
Encoding: 118 118 13
Width: 460
Flags: W
HStem: 415 20G<84 170.825>
VStem: 84 290
LayerCount: 3
Fore
SplineSet
190 0 m 1
 84 434 l 5
 166 435 l 1
 235 149 l 1
 294 430 l 1
 374 431 l 1
 374 431 284.96288549 -0.717823246417 278 0 c 0
 275.821289062 0.224609375 189.856445312 -0.447265625 190 0 c 1
EndSplineSet
Validated: 37
EndChar

StartChar: cacute
Encoding: 230 263 14
Width: 367
Flags: W
HStem: 445 69<195 222>
LayerCount: 3
Fore
SplineSet
161 435 m 5
 183.552734375 445.018554688 204.726465936 449.771024795 222 445 c 5
 258 516 l 5
 195 514 l 5
 161 435 l 5
313 411 m 1
 313 411 76 460 46 230 c 0
 16 0 289.141601562 -22.9208984375 310 28 c 0
 316.512695312 43.900390625 304.81640625 122.7265625 308 123 c 1
 308 123 94 85 136 229 c 0
 178 373 313.591796875 300.58984375 314 314 c 0
 314.258789062 322.510742188 314.65625 371.599609375 313 411 c 1
EndSplineSet
Validated: 37
EndChar

StartChar: Cacute
Encoding: 198 262 15
Width: 556
Flags: HW
LayerCount: 3
Fore
SplineSet
473 659 m 5
 477.439397317 657.767311521 30.7381218975 770.880703809 46 341 c 4
 60.1446600092 -57.4120669188 383.325544338 -14.7948235553 480 33 c 4
 574.124972946 79.534386393 499.560546875 121.670898438 438 133 c 5
 440.494140625 134.586914062 166.025696284 26.6659332179 152 368 c 4
 148.926651788 442.79403678 230.637189547 605.919281296 361 559 c 4
 517.345501185 502.729208322 523.958426198 579.43151219 473 659 c 5
262 690 m 1
 284.552734375 700.018554688 308.7265625 712.771484375 326 708 c 1
 362 779 l 1
 296 769 l 1
 262 690 l 1
EndSplineSet
Validated: 37
EndChar

StartChar: Dcroat
Encoding: 208 272 16
Width: 618
Flags: HMW
LayerCount: 3
Fore
SplineSet
257 570 m 1
 257 417 l 0
 360 414 l 0
 362 287 l 0
 257 291 l 0
 259 142 l 1
 256.266601562 124.393554688 523.166015625 153.358398438 449 392 c 0
 407.96484375 524.036132812 257.063476562 570.044921875 257 570 c 1
147 0 m 1
 148 297 l 0
 32 299 l 0
 29 425 l 0
 148 420 l 0
 147 704 l 1
 147 704 449.35546875 730.52734375 553 402 c 0
 670.177734375 30.576171875 174.580078125 -23.7265625 147 0 c 1
EndSplineSet
Validated: 33
EndChar

StartChar: dcroat
Encoding: 240 273 17
Width: 509
Flags: HW
HStem: 522 107<214 326 472 585>
VStem: 330 156<0.930475 138.277>
LayerCount: 3
Fore
SplineSet
177 203 m 0
 132.604492188 192.819335938 136.216796875 176.920898438 139 146 c 0
 143.25390625 98.7470703125 229.8515625 114.883789062 233 139 c 0
 237.205078125 171.20703125 227.119140625 214.494140625 177 203 c 0
335 137 m 1
 315.419921875 26.6416015625 142.583007812 -86.3720703125 60 93 c 0
 27.9228515625 162.671875 43.115234375 239.373046875 99 273 c 0
 129.533203125 291.372070312 234 317 259 295 c 0
 364.473632812 202.18359375 308.815429688 454.529296875 324 515 c 1
 326.115234375 517.969726562 225.626953125 521.833007812 220 516 c 1
 218 594 l 1
 318 592 l 1
 318.702148438 592 315.575195312 701.684570312 314 700 c 1
 393 695 l 1
 390 594 l 1
 478 594 l 1
 478 508 l 1
 423.767578125 507.8984375 419.0859375 509.412109375 386 510 c 1
 395.365234375 507.733398438 363.241210938 24.529296875 461 2 c 0
 462.94921875 1.55078125 323.923828125 -4.384765625 327 3 c 0
 332.260742188 15.626953125 331.796875 5.2763671875 335 137 c 1
EndSplineSet
EndChar

StartChar: Scaron
Encoding: 169 352 18
Width: 512
Flags: W
LayerCount: 3
Fore
SplineSet
180.609375 763.696289062 m 1
 201.924804688 739.059570312 221.30859375 697.314453125 214.609375 700.696289062 c 1
 246.248046875 712.830078125 252.215820312 706.98828125 268.609375 699.696289062 c 1
 278 720 290.08984375 741.419921875 305.609375 761.696289062 c 1
 276.817382812 761.696289062 285.86328125 761.696289062 270.609375 761.696289062 c 1
 262.549804688 752.029296875 255.4453125 743.36328125 243.609375 733.696289062 c 1
 215.609375 763.696289062 l 1
 180.609375 763.696289062 l 1
375 537 m 4
 471.979492188 475.701171875 488.95413501 566.547707711 465 598 c 0
 443.304735592 626.486346811 251.554619719 714.859386134 169.609375 660.696289062 c 0
 -118.359471724 470.358403658 281.868231729 376.537554287 301 282 c 0
 360.053703319 -9.8074589007 71.5260415283 260.932760392 51 169 c 0
 -12.7145090884 -116.366795611 447.719446674 29.1022511751 445 164 c 0
 442.571245729 284.477995285 381.591856468 425.138920618 291.609375 446.696289062 c 0
 85.892578125 495.98046875 184.999023438 657.095703125 375 537 c 4
EndSplineSet
Validated: 37
EndChar

StartChar: Zcaron
Encoding: 174 381 19
Width: 474
Flags: HW
HStem: 282 78<102 117.396 345 415>
LayerCount: 3
Fore
SplineSet
176 705 m 1
 197.315429688 680.36328125 216.69921875 638.618164062 210 642 c 1
 241.638671875 654.133789062 247.606445312 648.291992188 264 641 c 1
 273.390625 661.303710938 285.48046875 682.723632812 301 703 c 1
 272.208007812 703 281.25390625 703 266 703 c 1
 257.940429688 693.333007812 250.8359375 684.666992188 239 675 c 1
 211 705 l 1
 176 705 l 1
43 490 m 1
 307 492 l 1
 209.5546875 360 l 0
 102 360 l 0
 99 282 l 0
 154.188476562 285 l 0
 25 110 l 1
 25 110 21 -6 21 0 c 0
 21 6 415 0 415 0 c 1
 415 112 l 1
 172 105 l 1
 222.596679688 173.328125 293 276 293 276 c 1
 417 280 l 1
 415 356 l 1
 335 352 l 1
 335 352 416.22265625 442.935546875 448 487 c 1
 449 604 l 1
 43 606 l 1
 43 490 l 1
EndSplineSet
Validated: 37
EndChar
